# xmcd
#
# Track frame offsets: 
#        150
#        15752
#        35611
#        61547
#        77506
#        93904
#        108755
#        124504
#        141507
#        155320
#
# Disc length: 2293 seconds
#
# Revision: 0
# Processed by: cddbd v1.5.2PL0 Copyright (c) Steve Scherf et al.
# Submitted via: ExactAudioCopy v1.0b4
#
DISCID=6608f30a
DTITLE=George Thorogood - Born to Be Bad (LP)
DYEAR=1988
DGENRE=Blues
TTITLE0=Shake Your Money Maker
TTITLE1=You Talk Too Much
TTITLE2=Highway 49
TTITLE3=Born to Be Bad
TTITLE4=You Can't Catch Me
TTITLE5=I'm Ready
TTITLE6=Treat Her Right
TTITLE7=I Really Like Girls
TTITLE8=Smokestack Lightning
TTITLE9=I'm Movin' On
EXTD=
EXTT0=
EXTT1=
EXTT2=
EXTT3=
EXTT4=
EXTT5=
EXTT6=
EXTT7=
EXTT8=
EXTT9=
PLAYORDER=
